:FULLY-SPECIFIED
:FORCE-ALL-JOINTS-BE-3DOF
:DEGREES
1
root -2.95645 16.8291 -36.2757 3.79203 -0.409345 -2.77144
lfemur -18.1857 -3.85478 -7.37129
ltibia 37.6337 0 0
lfoot -17.8071 6.78532 0
ltoes -26.1578 0 0
rfemur -19.1521 0.15077 14.7318
rtibia 40.3652 0 0
rfoot -23.1652 -2.86285 0
rtoes -21.0274 0 0
lowerback 7.02591 2.55716 -1.97249
upperback -3.14202 3.31583 1.27229
thorax -7.43554 1.75645 1.99661
lowerneck -4.68188 -4.04088 -6.84108
upperneck 4.69893 -5.30737 6.47589
head 2.76948 -2.5844 3.14763
lclavicle 1.91563e-15 -9.24349e-15 0
lhumerus -27.0689 -5.33108 89.6453
lradius 25.7364 0 0
lwrist -30.6252 0 0
lhand -28.8405 29.9909 0
lfingers 7.12502 0 0
lthumb -2.19771 59.9594 0
rclavicle 1.91563e-15 -9.24349e-15 0
rhumerus -32.8355 4.71181 -81.727
rradius 32.9783 0 0
rwrist 3.84135 0 0
rhand -24.1523 -25.0894 0
rfingers 7.12502 0 0
rthumb 2.33029 -55.0564 0
2
root -2.95647 16.8281 -36.2789 3.83496 -0.515041 -2.77044
lfemur -18.1812 -3.83508 -7.37497
ltibia 37.6374 -0 0
lfoot -17.8099 6.78166 3.51458e-05
ltoes -26.1339 0 0
rfemur -19.1513 0.14099 14.7313
rtibia 40.3719 -0 0
rfoot -23.1653 -2.85288 -3.49146e-06
rtoes -21.0005 0 0
lowerback 7.0168 2.56529 -1.92512
upperback -3.13081 3.33086 1.26317
thorax -7.41553 1.76102 1.95907
lowerneck -4.72931 -3.99134 -6.7546
upperneck 4.68931 -5.23907 6.40124
head 2.76328 -2.55005 3.10787
lclavicle 1.8607e-15 -9.24077e-15 4.81135e-34
lhumerus -27.0676 -5.33095 89.6473
lradius 25.7379 -0 0
lwrist -30.6231 0 0
lhand -28.8408 29.9907 2.93911e-07
lfingers 7.12502 -0 0
lthumb -2.19784 59.9593 4.77646e-08
rclavicle 1.89871e-15 -9.22198e-15 1.47234e-33
rhumerus -32.8339 4.70814 -81.7242
rradius 32.9726 -0 0
rwrist 3.84075 0 0
rhand -24.1475 -25.0949 -6.64009e-05
rfingers 7.12502 -0 0
rthumb 2.3344 -55.0609 -5.89917e-05
3
root -2.95654 16.8272 -36.2808 3.87536 -0.609706 -2.74215
lfemur -18.168 -3.77775 -7.38568
ltibia 37.6482 -0 0
lfoot -17.8181 6.77098 0.000136746
ltoes -26.0642 0 0
rfemur -19.149 0.112571 14.7297
rtibia 40.3915 -0 0
rfoot -23.1655 -2.82366 -1.36451e-05
rtoes -20.9216 0 0
lowerback 6.97964 2.56886 -1.91256
upperback -3.12187 3.33669 1.25357
thorax -7.38337 1.76276 1.94295
lowerneck -4.65596 -3.96919 -6.78933
upperneck 4.65659 -5.21207 6.43618
head 2.73923 -2.5375 3.12874
lclavicle 1.70042e-15 -9.23285e-15 1.86997e-33
lhumerus -27.0639 -5.33058 89.6532
lradius 25.7424 -0 0
lwrist -30.617 0 0
lhand -28.8418 29.99 1.14578e-06
lfingers 7.12502 -0 0
lthumb -2.19821 59.9591 1.86523e-07
rclavicle 1.84921e-15 -9.15903e-15 5.74479e-33
rhumerus -32.8293 4.69739 -81.7162
rradius 32.956 -0 0
rwrist 3.839 0 0
rhand -24.1334 -25.1109 -0.00025672
rfingers 7.12502 -0 0
rthumb 2.34639 -55.0738 -0.000229278
4
root -2.95608 16.8264 -36.2839 3.91591 -0.691332 -2.68194
lfemur -18.1469 -3.68549 -7.40289
ltibia 37.6656 -0 0
lfoot -17.8314 6.7537 0.000297745
ltoes -25.9521 0 0
rfemur -19.1453 0.0668934 14.7271
rtibia 40.4231 -0 0
rfoot -23.1659 -2.77622 -2.98783e-05
rtoes -20.7935 0 0
lowerback 6.97732 2.56488 -1.92358
upperback -3.12468 3.32854 1.22857
thorax -7.38364 1.75861 1.92401
lowerneck -4.67577 -3.93993 -6.77722
upperneck 4.69449 -5.17403 6.43694
head 2.75249 -2.51803 3.12843
lclavicle 1.44161e-15 -9.22005e-15 4.06593e-33
lhumerus -27.0578 -5.32999 89.6627
lradius 25.7497 -0 0
lwrist -30.6071 0 0
lhand -28.8433 29.9888 2.50098e-06
lfingers 7.12502 -0 0
lthumb -2.19882 59.9586 4.08018e-07
rclavicle 1.76897e-15 -9.05702e-15 1.25536e-32
rhumerus -32.8217 4.68 -81.7032
rradius 32.9292 -0 0
rwrist 3.83619 0 0
rhand -24.1108 -25.1366 -0.000554404
rfingers 7.12502 -0 0
rthumb 2.36575 -55.0948 -0.000498529
5
root -2.9567 16.8246 -36.2864 3.93099 -0.778759 -2.70931
lfemur -18.1184 -3.56098 -7.42605
ltibia 37.6892 -0 0
lfoot -17.8493 6.73028 0.000509671
ltoes -25.8008 0 0
rfemur -19.1403 0.00533695 14.7237
rtibia 40.4656 -0 0
rfoot -23.1664 -2.71162 -5.14944e-05
rtoes -20.6191 0 0
lowerback 6.9958 2.57611 -1.85729
upperback -3.12063 3.34971 1.22615
thorax -7.38683 1.76566 1.88076
lowerneck -4.69782 -3.92264 -6.7611
upperneck 4.7339 -5.15184 6.43111
head 2.76744 -2.50652 3.12428
lclavicle 1.09105e-15 -9.20272e-15 6.94813e-33
lhumerus -27.0496 -5.32918 89.6757
lradius 25.7594 -0 0
lwrist -30.5935 0 0
lhand -28.8453 29.9873 4.29401e-06
lfingers 7.12502 -0 0
lthumb -2.19964 59.9581 7.02371e-07
rclavicle 1.65987e-15 -8.9183e-15 2.15828e-32
rhumerus -32.8115 4.65636 -81.6855
rradius 32.8929 -0 0
rwrist 3.83239 0 0
rhand -24.0804 -25.1712 -0.000939542
rfingers 7.12502 -0 0
rthumb 2.39197 -55.1232 -0.000851928
6
root -2.95737 16.8243 -36.2883 3.94289 -0.854282 -2.6876
lfemur -18.0832 -3.40689 -7.45462
ltibia 37.7186 -0 0
lfoot -17.8717 6.70116 0.000763007
ltoes -25.6136 0 0
rfemur -19.1342 -0.0707174 14.7194
rtibia 40.5183 -0 0
rfoot -23.167 -2.63089 -7.77079e-05
rtoes -20.4011 0 0
lowerback 7.0144 2.57229 -1.86316
upperback -3.11534 3.34403 1.2309
thorax -7.3923 1.76323 1.88914
lowerneck -4.57641 -3.94245 -6.84362
upperneck 4.6996 -5.18225 6.49127
head 2.74109 -2.52356 3.16083
lclavicle 6.55538e-16 -9.18118e-15 1.03811e-32
lhumerus -27.0393 -5.32818 89.6917
lradius 25.7714 -0 0
lwrist -30.5767 0 0
lhand -28.8479 29.9854 6.45116e-06
lfingers 7.12502 -0 0
lthumb -2.20067 59.9574 1.05844e-06
rclavicle 1.52376e-15 -8.74524e-15 3.24765e-32
rhumerus -32.7988 4.62689 -81.6635
rradius 32.8477 -0 0
rwrist 3.82768 0 0
rhand -24.0428 -25.214 -0.00138998
rfingers 7.12502 -0 0
rthumb 2.42455 -55.1585 -0.00127286
7
root -2.95846 16.8226 -36.2919 3.93153 -0.9345 -2.69314
lfemur -18.042 -3.22593 -7.48804
ltibia 37.7532 -0 0
lfoot -17.8981 6.66676 0.00104755
ltoes -25.3937 0 0
rfemur -19.1269 -0.159889 14.7144
rtibia 40.5801 -0 0
rfoot -23.1678 -2.53507 -0.000107668
rtoes -20.1424 0 0
lowerback 7.08453 2.56962 -1.83581
upperback -3.11989 3.34261 1.23591
thorax -7.43629 1.76152 1.87618
lowerneck -4.53666 -3.9248 -6.84572
upperneck 4.68682 -5.16054 6.4957
head 2.7279 -2.51333 3.16425
lclavicle 1.41873e-16 -9.15578e-15 1.42196e-32
lhumerus -27.0273 -5.327 89.7107
lradius 25.7855 -0 0
lwrist -30.5566 0 0
lhand -28.8509 29.9831 8.89299e-06
lfingers 7.12502 -0 0
lthumb -2.20189 59.9565 1.46419e-06
rclavicle 1.36251e-15 -8.54022e-15 4.48505e-32
rhumerus -32.7837 4.59201 -81.6374
rradius 32.7943 -0 0
rwrist 3.82214 0 0
rhand -23.9987 -25.2642 -0.00188234
rfingers 7.12502 -0 0
rthumb 2.46298 -55.2001 -0.00174353
8
root -2.95938 16.8202 -36.2942 3.90824 -0.999707 -2.68949
lfemur -17.9955 -3.02071 -7.52577
ltibia 37.7928 -0 0
lfoot -17.9281 6.62753 0.00135271
ltoes -25.1444 0 0
rfemur -19.1187 -0.260797 14.7087
rtibia 40.6502 -0 0
rfoot -23.1686 -2.42519 -0.00014048
rtoes -19.8458 0 0
lowerback 7.12978 2.57197 -1.83028
upperback -3.11363 3.34624 1.24438
thorax -7.45617 1.76323 1.87967
lowerneck -4.48231 -3.90027 -6.83719
upperneck 4.67184 -5.13058 6.49201
head 2.70983 -2.49926 3.16335
lclavicle -4.43149e-16 -9.12686e-15 1.83141e-32
lhumerus -27.0135 -5.32566 89.7324
lradius 25.8015 -0 0
lwrist -30.5337 0 0
lhand -28.8544 29.9805 1.15367e-05
lfingers 7.12502 -0 0
lthumb -2.20329 59.9556 1.90699e-06
rclavicle 1.17799e-15 -8.3056e-15 5.8303e-32
rhumerus -32.7666 4.55212 -81.6076
rradius 32.7334 -0 0
rwrist 3.81585 0 0
rhand -23.9488 -25.321 -0.00239293
rfingers 7.12502 -0 0
rthumb 2.50674 -55.2475 -0.00224559
